<svg xmlns="http://www.w3.org/2000/svg" viewBox="0 0 475.37 790.74"><defs><style>.cls-1{fill:#fff;}.cls-2{fill:none;stroke:#000;stroke-miterlimit:10;stroke-width:0.5px;}.cls-3{fill:#f49c57;}</style></defs><title>baby-lon</title><g id="bottom"><path class="cls-1" d="M343.26,590.33l196.53-93.71V725.79L343.26,819.5Zm0,0" transform="translate(-64.67 -29)"/><path class="cls-1" d="M539.79,496.62,343.26,590.33,64.92,524.16l196.53-93.71Zm0,0" transform="translate(-64.67 -29)"/><path class="cls-1" d="M343.26,590.33V819.5L64.92,753.34V524.16Zm0,0" transform="translate(-64.67 -29)"/><path class="cls-2" d="M343.26,590.33l196.53-93.71M343.26,590.33V819.5m0,0,196.53-93.71m0-229.17V725.79M64.92,524.16l278.34,66.17M64.92,524.16V753.34m0,0L343.26,819.5m-81.81-389L64.92,524.16m474.87-27.54L261.45,430.45" transform="translate(-64.67 -29)"/></g><g id="middle"><path class="cls-1" d="M226.16,289.13l-19.88-4.73V220.23L226.16,225Zm0,0" transform="translate(-64.67 -29)"/><path class="cls-1" d="M226.16,289.13V225l64.57-30.79v64.17Zm0,0" transform="translate(-64.67 -29)"/><path class="cls-1" d="M226.16,225l-19.88-4.73,64.57-30.79,19.88,4.73Zm0,0" transform="translate(-64.67 -29)"/><path class="cls-1" d="M311.64,532.75l-159-37.8V357.44l159,37.81Zm0,0" transform="translate(-64.67 -29)"/><path class="cls-1" d="M152.59,357.44l112.3-53.55L424,341.7,311.64,395.25Zm0,0" transform="translate(-64.67 -29)"/><path class="cls-1" d="M311.64,395.25,424,341.7V479.21L311.64,532.75Zm0,0" transform="translate(-64.67 -29)"/><path class="cls-2" d="M226.16,289.13l-19.88-4.73m19.88,4.73V225m0,0-19.88-4.73m0,64.17V220.23m84.45,38.11-64.57,30.79m64.57-30.79V194.17m0,0L226.16,225m44.69-35.52,19.88,4.73m-84.45,26.06,64.57-30.79M152.59,495l159,37.8M264.89,303.89l-112.3,53.55m0,0V495m159-99.7L424,341.7M311.64,395.25v137.5m0,0L424,479.21m0-137.51V479.21m0-137.51L264.89,303.89m-112.3,53.55,159,37.81M245,353.17l3.23-74.55m3.45-1.64,32.22,57.65m-40.27-53.82-26.9,51.75" transform="translate(-64.67 -29)"/></g><g id="fotos"><g id="Frame4"><path class="cls-1" d="M247.9,230.64l2.5-2.88,13.14,3.12-2.5,2.88Zm0,0" transform="translate(-64.67 -29)"/><path class="cls-1" d="M255.76,225.2l2.5.5,13.14,3.12-2.5-.49Zm0,0" transform="translate(-64.67 -29)"/><path class="cls-1" d="M245.75,234.35l2.15-3.71L261,233.76l-2.14,3.71Zm0,0" transform="translate(-64.67 -29)"/><path class="cls-1" d="M253.08,225.9l2.68-.7,13.14,3.13-2.68.7Zm0,0" transform="translate(-64.67 -29)"/><path class="cls-1" d="M250.4,227.76l2.68-1.86L266.22,229l-2.68,1.85Zm0,0" transform="translate(-64.67 -29)"/><path class="cls-1" d="M244.11,255.55l-1-3.58,13.14,3.12,1,3.59Zm0,0" transform="translate(-64.67 -29)"/><path class="cls-1" d="M244.11,238.64l1.64-4.29,13.15,3.12-1.65,4.29Zm0,0" transform="translate(-64.67 -29)"/><path class="cls-1" d="M243.07,243.21l1-4.57,13.14,3.12-1,4.58Zm0,0" transform="translate(-64.67 -29)"/><path class="cls-1" d="M242.72,247.76l.35-4.55,13.14,3.13-.35,4.54Zm0,0" transform="translate(-64.67 -29)"/><path class="cls-1" d="M243.07,252l-.35-4.21,13.14,3.12.35,4.21Zm0,0" transform="translate(-64.67 -29)"/><path class="cls-1" d="M245.75,258.27l-1.64-2.72,13.14,3.13,1.65,2.71Zm0,0" transform="translate(-64.67 -29)"/><path class="cls-1" d="M247.9,259.93l-2.15-1.66,13.15,3.12,2.14,1.67Zm0,0" transform="translate(-64.67 -29)"/><path class="cls-1" d="M266.68,262.54l-.46.31-2.68.71-2.5-.5-2.14-1.67-1.65-2.71-1-3.59-.35-4.21.35-4.54,1-4.58,1.65-4.29,2.14-3.71,2.5-2.88,2.68-1.85,2.68-.7,2.5.49,2.15,1.67.49.82-3.16-.75-2.25-.45-2.41.63-2.41,1.67L261.57,235l-1.93,3.33-1.48,3.86-.93,4.11-.32,4.08.32,3.78.93,3.23,1.48,2.44,1.93,1.5Zm0,0" transform="translate(-64.67 -29)"/><path class="cls-1" d="M261.57,261.33l-1.93-1.5,13.81,3.28,1.93,1.5-8.7-2.07Zm0,0" transform="translate(-64.67 -29)"/><path class="cls-1" d="M259.64,259.83l-1.48-2.44L272,260.67l1.47,2.44Zm0,0" transform="translate(-64.67 -29)"/><path class="cls-1" d="M258.16,257.39l-.93-3.23,13.82,3.29.93,3.22Zm0,0" transform="translate(-64.67 -29)"/><path class="cls-1" d="M257.23,254.16l-.32-3.78,13.82,3.29.32,3.78Zm0,0" transform="translate(-64.67 -29)"/><path class="cls-1" d="M256.91,250.38l.32-4.08,13.82,3.28-.32,4.09Zm0,0" transform="translate(-64.67 -29)"/><path class="cls-1" d="M257.23,246.3l.93-4.11L272,245.47l-.93,4.11Zm0,0" transform="translate(-64.67 -29)"/><path class="cls-1" d="M258.16,242.19l1.48-3.86,13.81,3.29L272,245.47Zm0,0" transform="translate(-64.67 -29)"/><path class="cls-1" d="M259.64,238.33l1.93-3.33,13.81,3.28-1.93,3.34Zm0,0" transform="translate(-64.67 -29)"/><path class="cls-1" d="M261.57,235l2.24-2.59,13.82,3.28-2.25,2.59Zm0,0" transform="translate(-64.67 -29)"/><path class="cls-1" d="M263.81,232.41l2.41-1.67L280,234l-2.41,1.67Zm0,0" transform="translate(-64.67 -29)"/><path class="cls-1" d="M266.22,230.74l2.41-.63,13.82,3.28L280,234Zm0,0" transform="translate(-64.67 -29)"/><path class="cls-1" d="M268.63,230.11l2.25.45,3.16.75,10.66,2.53-2.25-.45Zm0,0" transform="translate(-64.67 -29)"/><path class="cls-1" d="M289.35,244.79l-.32,4.08L288.1,253l-1.48,3.86-1.92,3.33-2.25,2.59L280,264.43l-2.41.63-2.25-.45-1.93-1.5L272,260.67l-.93-3.22-.32-3.78.32-4.09.93-4.11,1.47-3.85,1.93-3.34,2.25-2.59L280,234l2.41-.63,2.25.45,1.92,1.5,1.48,2.44L289,241Zm-1.06,4.11.29-3.75-.29-3.46-.86-3-1.35-2.24-1.77-1.37-2.06-.41h0l-2.2.58-2.21,1.53-2.06,2.37L274,242.25l-1.35,3.53-.86,3.77-.29,3.75.29,3.47.86,3L274,262l1.61,1.25h0l.15.11,2.06.41,2.21-.58,2.21-1.52,2.06-2.38,1.77-3.06,1.35-3.53Zm0,0" transform="translate(-64.67 -29)"/><path class="cls-1" d="M288.58,245.15l-.29,3.75-2.23-.53.29-3.74Zm0,0" transform="translate(-64.67 -29)"/><path class="cls-1" d="M288.29,248.9l-.86,3.77-2.22-.53.85-3.77Zm0,0" transform="translate(-64.67 -29)"/><path class="cls-1" d="M287.43,252.67l-1.35,3.53-2.23-.53,1.36-3.53Zm0,0" transform="translate(-64.67 -29)"/><path class="cls-1" d="M286.08,256.2l-1.77,3.06-2.23-.53,1.77-3.06Zm0,0" transform="translate(-64.67 -29)"/><path class="cls-1" d="M284.31,259.26l-2.06,2.38-2.23-.53,2.06-2.38Zm0,0" transform="translate(-64.67 -29)"/><path class="cls-1" d="M282.25,261.64,280,263.16l-2.23-.53,2.21-1.52Zm0,0" transform="translate(-64.67 -29)"/><path class="cls-1" d="M280,263.16l-2.21.58-2.21-.52h0l2.2-.58Zm0,0" transform="translate(-64.67 -29)"/><path class="cls-1" d="M277.83,263.74l-2.06-.41-.15-.11Zm0,0" transform="translate(-64.67 -29)"/><path class="cls-1" d="M274,262l-1.35-2.24-.86-3-.29-3.47.29-3.75.86-3.77,1.35-3.53,1.77-3.06,2.06-2.37,2.21-1.53,2.2-.58,1.61,1.25,1.36,2.24.85,3,.29,3.47-.29,3.74-.85,3.77-1.36,3.53-1.77,3.06L280,261.11l-2.21,1.52-2.2.58Zm0,0" transform="translate(-64.67 -29)"/><path class="cls-1" d="M282.25,234.71l2.06.41,1.77,1.37-2.23-.53-1.61-1.25Zm0,0" transform="translate(-64.67 -29)"/><path class="cls-1" d="M286.08,236.49l1.35,2.24-2.22-.53L283.85,236Zm0,0" transform="translate(-64.67 -29)"/><path class="cls-1" d="M287.43,238.73l.86,3-2.23-.53-.85-3Zm0,0" transform="translate(-64.67 -29)"/><path class="cls-1" d="M288.29,241.69l.29,3.46-2.23-.52-.29-3.47Zm0,0" transform="translate(-64.67 -29)"/><path class="cls-1" d="M291.73,289.79l87.48,20.79-42.62,20.33-2.81,1.33-5.11,2.44L287.79,325l-4-.94-42.62-10.13Zm1.17,2.28L248,313.49l51.69,12.29,44.92-21.42Zm0,0" transform="translate(-64.67 -29)"/><path class="cls-1" d="M241.19,358.88v-1.45l87.48,20.79v1.46Zm0,0" transform="translate(-64.67 -29)"/><path class="cls-1" d="M328.67,379.68v-1.46l50.54-24.09v1.45Zm0,0" transform="translate(-64.67 -29)"/><path class="cls-1" d="M379.21,354.13l-50.54,24.09v-1.45l50.54-24.1Zm0,0" transform="translate(-64.67 -29)"/><path class="cls-1" d="M328.67,378.22l-87.48-20.79V356l87.48,20.8Zm0,0" transform="translate(-64.67 -29)"/><path class="cls-1" d="M379.21,352.67l-50.54,24.1v-1.46l50.54-24.09Zm0,0" transform="translate(-64.67 -29)"/><path class="cls-1" d="M328.67,376.77,241.19,356v-1.45l87.48,20.79Zm0,0" transform="translate(-64.67 -29)"/><path class="cls-1" d="M379.21,351.22l-50.54,24.09v-1.45l50.54-24.1Zm0,0" transform="translate(-64.67 -29)"/><path class="cls-1" d="M328.67,375.31l-87.48-20.79v-1.46l87.48,20.8Zm0,0" transform="translate(-64.67 -29)"/><path class="cls-1" d="M328.67,373.86l-87.48-20.8v-1.45l87.48,20.8Zm0,0" transform="translate(-64.67 -29)"/><path class="cls-1" d="M379.21,349.76l-50.54,24.1v-1.45l50.54-24.1Zm0,0" transform="translate(-64.67 -29)"/><path class="cls-1" d="M328.67,372.41l-87.48-20.8v-1.45L328.67,371Zm0,0" transform="translate(-64.67 -29)"/><path class="cls-1" d="M379.21,348.31l-50.54,24.1V371l50.54-24.1Zm0,0" transform="translate(-64.67 -29)"/><path class="cls-1" d="M379.21,346.85,328.67,371V369.5l50.54-24.1Zm0,0" transform="translate(-64.67 -29)"/><path class="cls-1" d="M328.67,371l-87.48-20.79V348.7l87.48,20.8Zm0,0" transform="translate(-64.67 -29)"/><path class="cls-1" d="M328.67,369.5l-87.48-20.8v-1.45L328.67,368Zm0,0" transform="translate(-64.67 -29)"/><path class="cls-1" d="M379.21,345.4l-50.54,24.1V368L379.21,344Zm0,0" transform="translate(-64.67 -29)"/><path class="cls-1" d="M379.21,344,328.67,368v-1.45l50.54-24.1Zm0,0" transform="translate(-64.67 -29)"/><path class="cls-1" d="M328.67,368l-87.48-20.79v-1.46l87.48,20.8Zm0,0" transform="translate(-64.67 -29)"/><path class="cls-1" d="M328.67,366.59l-87.48-20.8v-1.45l87.48,20.79Zm0,0" transform="translate(-64.67 -29)"/><path class="cls-1" d="M379.21,342.49l-50.54,24.1v-1.46L379.21,341Zm0,0" transform="translate(-64.67 -29)"/><path class="cls-1" d="M328.67,365.13l-87.48-20.79L283.81,324l4,.94L248,344l51.69,12.28,44.92-21.42-10.81-2.57,2.81-1.33L379.21,341Zm0,0" transform="translate(-64.67 -29)"/><path class="cls-3" d="M248,344l39.81-19,40.88,9.72,5.11-2.44,10.81,2.57-44.92,21.42Zm0,0" transform="translate(-64.67 -29)"/><path class="cls-3" d="M248,313.49l44.92-21.42,51.69,12.29-44.92,21.42Zm0,0" transform="translate(-64.67 -29)"/><path class="cls-2" d="M247.9,230.64l2.5-2.88m5.36-2.56,2.5.5m-12.51,8.65,2.15-3.71m5.18-4.74,2.68-.7m-5.36,2.56,2.68-1.86m-9,29.65-1-3.58m1-13.33,1.64-4.29m-2.68,8.86,1-4.57m-1.39,9.12.35-4.55m0,8.76-.35-4.21m3,10.51-1.64-2.72m3.79,4.38-2.15-1.66m20.93,4.27-.46.31m0,0-2.68.71m0,0-2.5-.5m0,0-2.14-1.67m0,0-1.65-2.71m0,0-1-3.59m0,0-.35-4.21m0,0,.35-4.54m0,0,1-4.58m0,0,1.65-4.29m0,0,2.14-3.71m0,0,2.5-2.88m0,0,2.68-1.85m0,0,2.68-.7m0,0,2.5.49m0,0,2.15,1.67m0,0,.49.82M247.9,259.93,261,263.06m-2.78-37.36,13.14,3.12m-9.83,32.51-1.93-1.5m0,0-1.48-2.44m0,0-.93-3.23m0,0-.32-3.78m0,0,.32-4.08m0,0,.93-4.11m0,0,1.48-3.86m0,0,1.93-3.33m0,0,2.24-2.59m0,0,2.41-1.67m0,0,2.41-.63m0,0,2.25.45m18.47,14.23-.32,4.08m0-7.87.32,3.79m-1.25-7L289,241m-2.41-5.66,1.48,2.44m-3.4-3.94,1.92,1.5m-4.17-2,2.25.45M280,234l2.41-.63m-4.82,2.3L280,234m-4.66,4.26,2.25-2.59m-4.18,5.93,1.93-3.34m-3.4,7.19,1.47-3.85m-2.4,8,.93-4.11m-1.25,8.2.32-4.09m0,7.87-.32-3.78m1.25,7-.93-3.22m2.4,5.66L272,260.67m3.4,3.94-1.93-1.5m4.18,1.95-2.25-.45m4.66-.18-2.41.63m4.82-2.3L280,264.43m4.66-4.26-2.25,2.59m4.17-5.92-1.92,3.33m3.4-7.19-1.48,3.86m2.41-8L288.1,253m.48-7.83-.29,3.75m0,0-.86,3.77m0,0-1.35,3.53m0,0-1.77,3.06m0,0-2.06,2.38m0,0L280,263.16m0,0-2.21.58m0,0-2.06-.41M274,262l-1.35-2.24m0,0-.86-3m0,0-.29-3.47m0,0,.29-3.75m0,0,.86-3.77m0,0,1.35-3.53m0,0,1.77-3.06m0,0,2.06-2.37m0,0,2.21-1.53m2.21-.58,2.06.41m0,0,1.77,1.37m0,0,1.35,2.24m0,0,.86,3m0,0,.29,3.46m-2.23-.52-.29,3.74m0-7.21.29,3.47m-1.14-6.43.85,3m-2.21-5.2,1.36,2.24m-3-3.49,1.61,1.25m-6,26.67-2.2.58m4.41-2.1-2.21,1.52m4.27-3.9L280,261.11m3.83-5.44-1.77,3.06m3.13-6.59-1.36,3.53m2.21-7.3-.85,3.77m6.52,37.65,87.48,20.79M248,313.49l44.92-21.42m0,0,51.69,12.29m0,0-44.92,21.42m0,0L248,313.49m-6.79.4,50.54-24.1M248,344l39.81-19m46,7.28,10.81,2.57m0,0-44.92,21.42m0,0L248,344m-6.79,14.93v-1.45m0,1.45,87.48,20.8m0,0v-1.46m0,1.46,50.54-24.1m0,0v-1.45m-50.54,24.09,50.54-24.09m-138,3.3,87.48,20.79m-87.48-20.79V356m87.48,22.25v-1.45m50.54-22.64v-1.46m-50.54,24.1,50.54-24.1m-138,3.3,87.48,20.8M241.19,356v-1.45m87.48,22.25v-1.46m50.54-22.64v-1.45m-50.54,24.09,50.54-24.09m-138,3.3,87.48,20.79m-87.48-20.79v-1.46m87.48,22.25v-1.45m50.54-22.64v-1.46m-138,3.3,87.48,20.8m0,0,50.54-24.1m-138,3.3v-1.45m87.48,22.25v-1.45m50.54-22.65v-1.45m-138,3.3,87.48,20.8m0,0,50.54-24.1m-138,3.3v-1.45m87.48,22.25V371m50.54-22.64v-1.46M328.67,371l50.54-24.1m-138,3.31L328.67,371m-87.48-20.79V348.7M328.67,371V369.5m50.54-22.65V345.4m-138,3.3,87.48,20.8m0,0,50.54-24.1m-138,3.3v-1.45m87.48,22.25V368m50.54-22.64V344M328.67,368,379.21,344m-138,3.3L328.67,368m-87.48-20.79v-1.46M328.67,368v-1.45M379.21,344v-1.46m-138,3.3,87.48,20.8m0,0,50.54-24.1m-138,3.3v-1.45m87.48,22.25v-1.46m50.54-22.64V341m-138,3.3,87.48,20.79M283.81,324l-42.62,20.32m95.4-13.43L379.21,341m-50.54,24.09L379.21,341M270.88,230.56l3.16.75m0,0,10.66,2.53m-23.13,27.49,5.11,1.21m0,0,8.7,2.07m.23-1.4L274,262m6-26.67,2.2-.58m0,0h0m51.53,97.53-5.11,2.44m0,0L287.79,325m-12-61.63-.15-.11m0,0h0m103.6,47.37-42.62,20.33m0,0-2.81,1.33m-46-7.28-4-.94m0,0-42.62-10.13" transform="translate(-64.67 -29)"/></g><g id="Frame3"><path class="cls-1" d="M247.9,230.64l2.5-2.88,13.14,3.12-2.5,2.88Zm0,0" transform="translate(-64.67 -29)"/><path class="cls-1" d="M255.76,225.2l2.5.5,13.14,3.12-2.5-.49Zm0,0" transform="translate(-64.67 -29)"/><path class="cls-1" d="M245.75,234.35l2.15-3.71L261,233.76l-2.14,3.71Zm0,0" transform="translate(-64.67 -29)"/><path class="cls-1" d="M253.08,225.9l2.68-.7,13.14,3.13-2.68.7Zm0,0" transform="translate(-64.67 -29)"/><path class="cls-1" d="M250.4,227.76l2.68-1.86L266.22,229l-2.68,1.85Zm0,0" transform="translate(-64.67 -29)"/><path class="cls-1" d="M244.11,255.55l-1-3.58,13.14,3.12,1,3.59Zm0,0" transform="translate(-64.67 -29)"/><path class="cls-1" d="M244.11,238.64l1.64-4.29,13.15,3.12-1.65,4.29Zm0,0" transform="translate(-64.67 -29)"/><path class="cls-1" d="M243.07,243.21l1-4.57,13.14,3.12-1,4.58Zm0,0" transform="translate(-64.67 -29)"/><path class="cls-1" d="M242.72,247.76l.35-4.55,13.14,3.13-.35,4.54Zm0,0" transform="translate(-64.67 -29)"/><path class="cls-1" d="M243.07,252l-.35-4.21,13.14,3.12.35,4.21Zm0,0" transform="translate(-64.67 -29)"/><path class="cls-1" d="M245.75,258.27l-1.64-2.72,13.14,3.13,1.65,2.71Zm0,0" transform="translate(-64.67 -29)"/><path class="cls-1" d="M247.9,259.93l-2.15-1.66,13.15,3.12,2.14,1.67Zm0,0" transform="translate(-64.67 -29)"/><path class="cls-1" d="M266.68,262.54l-.46.31-2.68.71-2.5-.5-2.14-1.67-1.65-2.71-1-3.59-.35-4.21.35-4.54,1-4.58,1.65-4.29,2.14-3.71,2.5-2.88,2.68-1.85,2.68-.7,2.5.49,2.15,1.67.49.82-3.16-.75-2.25-.45-2.41.63-2.41,1.67L261.57,235l-1.93,3.33-1.48,3.86-.93,4.11-.32,4.08.32,3.78.93,3.23,1.48,2.44,1.93,1.5Zm0,0" transform="translate(-64.67 -29)"/><path class="cls-1" d="M261.57,261.33l-1.93-1.5,13.81,3.28,1.93,1.5-8.7-2.07Zm0,0" transform="translate(-64.67 -29)"/><path class="cls-1" d="M259.64,259.83l-1.48-2.44L272,260.67l1.47,2.44Zm0,0" transform="translate(-64.67 -29)"/><path class="cls-1" d="M258.16,257.39l-.93-3.23,13.82,3.29.93,3.22Zm0,0" transform="translate(-64.67 -29)"/><path class="cls-1" d="M257.23,254.16l-.32-3.78,13.82,3.29.32,3.78Zm0,0" transform="translate(-64.67 -29)"/><path class="cls-1" d="M256.91,250.38l.32-4.08,13.82,3.28-.32,4.09Zm0,0" transform="translate(-64.67 -29)"/><path class="cls-1" d="M257.23,246.3l.93-4.11L272,245.47l-.93,4.11Zm0,0" transform="translate(-64.67 -29)"/><path class="cls-1" d="M258.16,242.19l1.48-3.86,13.81,3.29L272,245.47Zm0,0" transform="translate(-64.67 -29)"/><path class="cls-1" d="M259.64,238.33l1.93-3.33,13.81,3.28-1.93,3.34Zm0,0" transform="translate(-64.67 -29)"/><path class="cls-1" d="M261.57,235l2.24-2.59,13.82,3.28-2.25,2.59Zm0,0" transform="translate(-64.67 -29)"/><path class="cls-1" d="M263.81,232.41l2.41-1.67L280,234l-2.41,1.67Zm0,0" transform="translate(-64.67 -29)"/><path class="cls-1" d="M266.22,230.74l2.41-.63,13.82,3.28L280,234Zm0,0" transform="translate(-64.67 -29)"/><path class="cls-1" d="M268.63,230.11l2.25.45,3.16.75,10.66,2.53-2.25-.45Zm0,0" transform="translate(-64.67 -29)"/><path class="cls-1" d="M289.35,244.79l-.32,4.08L288.1,253l-1.48,3.86-1.92,3.33-2.25,2.59L280,264.43l-2.41.63-2.25-.45-1.93-1.5L272,260.67l-.93-3.22-.32-3.78.32-4.09.93-4.11,1.47-3.85,1.93-3.34,2.25-2.59L280,234l2.41-.63,2.25.45,1.92,1.5,1.48,2.44L289,241Zm-1.06,4.11.29-3.75-.29-3.46-.86-3-1.35-2.24-1.77-1.37-2.06-.41h0l-2.2.58-2.21,1.53-2.06,2.37L274,242.25l-1.35,3.53-.86,3.77-.29,3.75.29,3.47.86,3L274,262l1.61,1.25h0l.15.11,2.06.41,2.21-.58,2.21-1.52,2.06-2.38,1.77-3.06,1.35-3.53Zm0,0" transform="translate(-64.67 -29)"/><path class="cls-1" d="M288.58,245.15l-.29,3.75-2.23-.53.29-3.74Zm0,0" transform="translate(-64.67 -29)"/><path class="cls-1" d="M288.29,248.9l-.86,3.77-2.22-.53.85-3.77Zm0,0" transform="translate(-64.67 -29)"/><path class="cls-1" d="M287.43,252.67l-1.35,3.53-2.23-.53,1.36-3.53Zm0,0" transform="translate(-64.67 -29)"/><path class="cls-1" d="M286.08,256.2l-1.77,3.06-2.23-.53,1.77-3.06Zm0,0" transform="translate(-64.67 -29)"/><path class="cls-1" d="M284.31,259.26l-2.06,2.38-2.23-.53,2.06-2.38Zm0,0" transform="translate(-64.67 -29)"/><path class="cls-1" d="M282.25,261.64,280,263.16l-2.23-.53,2.21-1.52Zm0,0" transform="translate(-64.67 -29)"/><path class="cls-1" d="M280,263.16l-2.21.58-2.21-.52h0l2.2-.58Zm0,0" transform="translate(-64.67 -29)"/><path class="cls-1" d="M277.83,263.74l-2.06-.41-.15-.11Zm0,0" transform="translate(-64.67 -29)"/><path class="cls-1" d="M274,262l-1.35-2.24-.86-3-.29-3.47.29-3.75.86-3.77,1.35-3.53,1.77-3.06,2.06-2.37,2.21-1.53,2.2-.58,1.61,1.25,1.36,2.24.85,3,.29,3.47-.29,3.74-.85,3.77-1.36,3.53-1.77,3.06L280,261.11l-2.21,1.52-2.2.58Zm0,0" transform="translate(-64.67 -29)"/><path class="cls-1" d="M282.25,234.71l2.06.41,1.77,1.37-2.23-.53-1.61-1.25Zm0,0" transform="translate(-64.67 -29)"/><path class="cls-1" d="M286.08,236.49l1.35,2.24-2.22-.53L283.85,236Zm0,0" transform="translate(-64.67 -29)"/><path class="cls-1" d="M287.43,238.73l.86,3-2.23-.53-.85-3Zm0,0" transform="translate(-64.67 -29)"/><path class="cls-1" d="M288.29,241.69l.29,3.46-2.23-.52-.29-3.47Zm0,0" transform="translate(-64.67 -29)"/><path class="cls-1" d="M379.21,280.13l-50.54,24.1-87.48-20.8,50.54-24.09ZM292.9,261.62,248,283l51.69,12.29,44.92-21.42Zm0,0" transform="translate(-64.67 -29)"/><path class="cls-3" d="M248,283l44.92-21.42,51.69,12.29-44.92,21.42Zm0,0" transform="translate(-64.67 -29)"/><path class="cls-3" d="M248,344l44.92-21.42,51.69,12.28-44.92,21.42Zm0,0" transform="translate(-64.67 -29)"/><path class="cls-1" d="M241.19,358.88v-1.45l87.48,20.79v1.46Zm0,0" transform="translate(-64.67 -29)"/><path class="cls-1" d="M328.67,379.68v-1.46l50.54-24.09v1.45Zm0,0" transform="translate(-64.67 -29)"/><path class="cls-1" d="M379.21,354.13l-50.54,24.09v-1.45l50.54-24.1Zm0,0" transform="translate(-64.67 -29)"/><path class="cls-1" d="M328.67,378.22l-87.48-20.79V356l87.48,20.8Zm0,0" transform="translate(-64.67 -29)"/><path class="cls-1" d="M379.21,352.67l-50.54,24.1v-1.46l50.54-24.09Zm0,0" transform="translate(-64.67 -29)"/><path class="cls-1" d="M328.67,376.77,241.19,356v-1.45l87.48,20.79Zm0,0" transform="translate(-64.67 -29)"/><path class="cls-1" d="M379.21,351.22l-50.54,24.09v-1.45l50.54-24.1Zm0,0" transform="translate(-64.67 -29)"/><path class="cls-1" d="M328.67,375.31l-87.48-20.79v-1.46l87.48,20.8Zm0,0" transform="translate(-64.67 -29)"/><path class="cls-1" d="M328.67,373.86l-87.48-20.8v-1.45l87.48,20.8Zm0,0" transform="translate(-64.67 -29)"/><path class="cls-1" d="M379.21,349.76l-50.54,24.1v-1.45l50.54-24.1Zm0,0" transform="translate(-64.67 -29)"/><path class="cls-1" d="M328.67,372.41l-87.48-20.8v-1.45L328.67,371Zm0,0" transform="translate(-64.67 -29)"/><path class="cls-1" d="M379.21,348.31l-50.54,24.1V371l50.54-24.1Zm0,0" transform="translate(-64.67 -29)"/><path class="cls-1" d="M379.21,346.85,328.67,371V369.5l50.54-24.1Zm0,0" transform="translate(-64.67 -29)"/><path class="cls-1" d="M328.67,371l-87.48-20.79V348.7l87.48,20.8Zm0,0" transform="translate(-64.67 -29)"/><path class="cls-1" d="M328.67,369.5l-87.48-20.8v-1.45L328.67,368Zm0,0" transform="translate(-64.67 -29)"/><path class="cls-1" d="M379.21,345.4l-50.54,24.1V368L379.21,344Zm0,0" transform="translate(-64.67 -29)"/><path class="cls-1" d="M379.21,344,328.67,368v-1.45l50.54-24.1Zm0,0" transform="translate(-64.67 -29)"/><path class="cls-1" d="M328.67,368l-87.48-20.79v-1.46l87.48,20.8Zm0,0" transform="translate(-64.67 -29)"/><path class="cls-1" d="M328.67,366.59l-87.48-20.8v-1.45l87.48,20.79Zm0,0" transform="translate(-64.67 -29)"/><path class="cls-1" d="M379.21,342.49l-50.54,24.1v-1.46L379.21,341Zm0,0" transform="translate(-64.67 -29)"/><path class="cls-1" d="M328.67,365.13l-87.48-20.79,50.54-24.1L379.21,341Zm-35.77-42.6L248,344l51.69,12.28,44.92-21.42Zm0,0" transform="translate(-64.67 -29)"/><path class="cls-2" d="M247.9,230.64l2.5-2.88m5.36-2.56,2.5.5m-12.51,8.65,2.15-3.71m5.18-4.74,2.68-.7m-5.36,2.56,2.68-1.86m-9,29.65-1-3.58m1-13.33,1.64-4.29m-2.68,8.86,1-4.57m-1.39,9.12.35-4.55m0,8.76-.35-4.21m3,10.51-1.64-2.72m3.79,4.38-2.15-1.66m20.93,4.27-.46.31m0,0-2.68.71m0,0-2.5-.5m0,0-2.14-1.67m0,0-1.65-2.71m0,0-1-3.59m0,0-.35-4.21m0,0,.35-4.54m0,0,1-4.58m0,0,1.65-4.29m0,0,2.14-3.71m0,0,2.5-2.88m0,0,2.68-1.85m0,0,2.68-.7m0,0,2.5.49m0,0,2.15,1.67m0,0,.49.82M247.9,259.93,261,263.06m-2.78-37.36,13.14,3.12m-9.83,32.51-1.93-1.5m0,0-1.48-2.44m0,0-.93-3.23m0,0-.32-3.78m0,0,.32-4.08m0,0,.93-4.11m0,0,1.48-3.86m0,0,1.93-3.33m0,0,2.24-2.59m0,0,2.41-1.67m0,0,2.41-.63m0,0,2.25.45m18.47,14.23-.32,4.08m0-7.87.32,3.79m-1.25-7L289,241m-2.41-5.66,1.48,2.44m-3.4-3.94,1.92,1.5m-4.17-2,2.25.45M280,234l2.41-.63m-4.82,2.3L280,234m-4.66,4.26,2.25-2.59m-4.18,5.93,1.93-3.34m-3.4,7.19,1.47-3.85m-2.4,8,.93-4.11m-1.25,8.2.32-4.09m0,7.87-.32-3.78m1.25,7-.93-3.22m2.4,5.66L272,260.67m3.4,3.94-1.93-1.5m4.18,1.95-2.25-.45m4.66-.18-2.41.63m4.82-2.3L280,264.43m4.66-4.26-2.25,2.59m4.17-5.92-1.92,3.33m3.4-7.19-1.48,3.86m2.41-8L288.1,253m.48-7.83-.29,3.75m0,0-.86,3.77m0,0-1.35,3.53m0,0-1.77,3.06m0,0-2.06,2.38m0,0L280,263.16m0,0-2.21.58m0,0-2.06-.41M274,262l-1.35-2.24m0,0-.86-3m0,0-.29-3.47m0,0,.29-3.75m0,0,.86-3.77m0,0,1.35-3.53m0,0,1.77-3.06m0,0,2.06-2.37m0,0,2.21-1.53m2.21-.58,2.06.41m0,0,1.77,1.37m0,0,1.35,2.24m0,0,.86,3m0,0,.29,3.46m-2.23-.52-.29,3.74m0-7.21.29,3.47m-1.14-6.43.85,3m-2.21-5.2,1.36,2.24m-3-3.49,1.61,1.25m-6,26.67-2.2.58m4.41-2.1-2.21,1.52m4.27-3.9L280,261.11m3.83-5.44-1.77,3.06m3.13-6.59-1.36,3.53m2.21-7.3-.85,3.77m94,28-50.54,24.1m-36.94-44.89,87.48,20.79M248,283l44.92-21.42m0,0,51.69,12.29m0,0-44.92,21.42m0,0L248,283m80.69,21.19-87.48-20.8m0,0,50.54-24.09M248,344l44.92-21.42m0,0,51.69,12.28m0,0-44.92,21.42m0,0L248,344m-6.79,14.93v-1.45m0,1.45,87.48,20.8m0,0v-1.46m0,1.46,50.54-24.1m0,0v-1.45m-50.54,24.09,50.54-24.09m-138,3.3,87.48,20.79m-87.48-20.79V356m87.48,22.25v-1.45m50.54-22.64v-1.46m-50.54,24.1,50.54-24.1m-138,3.3,87.48,20.8M241.19,356v-1.45m87.48,22.25v-1.46m50.54-22.64v-1.45m-50.54,24.09,50.54-24.09m-138,3.3,87.48,20.79m-87.48-20.79v-1.46m87.48,22.25v-1.45m50.54-22.64v-1.46m-138,3.3,87.48,20.8m0,0,50.54-24.1m-138,3.3v-1.45m87.48,22.25v-1.45m50.54-22.65v-1.45m-138,3.3,87.48,20.8m0,0,50.54-24.1m-138,3.3v-1.45m87.48,22.25V371m50.54-22.64v-1.46M328.67,371l50.54-24.1m-138,3.31L328.67,371m-87.48-20.79V348.7M328.67,371V369.5m50.54-22.65V345.4m-138,3.3,87.48,20.8m0,0,50.54-24.1m-138,3.3v-1.45m87.48,22.25V368m50.54-22.64V344M328.67,368,379.21,344m-138,3.3L328.67,368m-87.48-20.79v-1.46M328.67,368v-1.45M379.21,344v-1.46m-138,3.3,87.48,20.8m0,0,50.54-24.1m-138,3.3v-1.45m87.48,22.25v-1.46m50.54-22.64V341m-138,3.3,87.48,20.79m-36.94-44.89-50.54,24.1m50.54-24.1L379.21,341m-50.54,24.09L379.21,341M270.88,230.56l3.16.75m0,0,10.66,2.53m-23.13,27.49,5.11,1.21m0,0,8.7,2.07m.23-1.4L274,262m6-26.67,2.2-.58m0,0h0m-6.48,28.62-.15-.11m0,0h0" transform="translate(-64.67 -29)"/></g><g id="Frame2"><path class="cls-3" d="M230.62,278.91,263,263.46l.5.1,2.68-.71.46-.31,8.7,2.07,2.25.45,2.41-.63,2.41-1.67,2.25-2.59.25-.44,26.87,6.39L266.9,287.54Zm0,0" transform="translate(-64.67 -29)"/><path d="M263,263.46l-32.42,15.45-2.81,1.34,1.61.38-3,1.44v-2.29l34.93-16.66Zm0,0" transform="translate(-64.67 -29)"/><path class="cls-1" d="M247.9,230.64l2.5-2.88,13.14,3.12-2.5,2.88Zm0,0" transform="translate(-64.67 -29)"/><path class="cls-1" d="M255.76,225.2l2.5.5,13.14,3.12-2.5-.49Zm0,0" transform="translate(-64.67 -29)"/><path class="cls-1" d="M245.75,234.35l2.15-3.71L261,233.76l-2.14,3.71Zm0,0" transform="translate(-64.67 -29)"/><path class="cls-1" d="M253.08,225.9l2.68-.7,13.14,3.13-2.68.7Zm0,0" transform="translate(-64.67 -29)"/><path class="cls-1" d="M250.4,227.76l2.68-1.86L266.22,229l-2.68,1.85Zm0,0" transform="translate(-64.67 -29)"/><path class="cls-1" d="M244.11,255.55l-1-3.58,13.14,3.12,1,3.59Zm0,0" transform="translate(-64.67 -29)"/><path class="cls-1" d="M244.11,238.64l1.64-4.29,13.15,3.12-1.65,4.29Zm0,0" transform="translate(-64.67 -29)"/><path class="cls-1" d="M243.07,243.21l1-4.57,13.14,3.12-1,4.58Zm0,0" transform="translate(-64.67 -29)"/><path class="cls-1" d="M242.72,247.76l.35-4.55,13.14,3.13-.35,4.54Zm0,0" transform="translate(-64.67 -29)"/><path class="cls-1" d="M243.07,252l-.35-4.21,13.14,3.12.35,4.21Zm0,0" transform="translate(-64.67 -29)"/><path class="cls-1" d="M245.75,258.27l-1.64-2.72,13.14,3.13,1.65,2.71Zm0,0" transform="translate(-64.67 -29)"/><path class="cls-1" d="M247.9,259.93l-2.15-1.66,13.15,3.12,2.14,1.67Zm0,0" transform="translate(-64.67 -29)"/><path class="cls-1" d="M266.68,262.54l-.46.31-2.68.71-.5-.1-1.7-.34-.3-.06-2.14-1.67-1.65-2.71-1-3.59-.35-4.21.35-4.54,1-4.58,1.65-4.29,2.14-3.71,2.5-2.88,2.68-1.85,2.68-.7,2.5.49,2.15,1.67.49.82-3.16-.75-2.25-.45-2.41.63-2.41,1.67L261.57,235l-1.93,3.33-1.48,3.86-.93,4.11-.32,4.08.32,3.78.93,3.23,1.48,2.44,1.93,1.5Zm0,0" transform="translate(-64.67 -29)"/><path class="cls-1" d="M261.57,261.33l-1.93-1.5,13.81,3.28,1.93,1.5-8.7-2.07Zm0,0" transform="translate(-64.67 -29)"/><path class="cls-1" d="M259.64,259.83l-1.48-2.44L272,260.67l1.47,2.44Zm0,0" transform="translate(-64.67 -29)"/><path class="cls-1" d="M258.16,257.39l-.93-3.23,13.82,3.29.93,3.22Zm0,0" transform="translate(-64.67 -29)"/><path class="cls-1" d="M257.23,254.16l-.32-3.78,13.82,3.29.32,3.78Zm0,0" transform="translate(-64.67 -29)"/><path class="cls-1" d="M256.91,250.38l.32-4.08,13.82,3.28-.32,4.09Zm0,0" transform="translate(-64.67 -29)"/><path class="cls-1" d="M257.23,246.3l.93-4.11L272,245.47l-.93,4.11Zm0,0" transform="translate(-64.67 -29)"/><path class="cls-1" d="M258.16,242.19l1.48-3.86,13.81,3.29L272,245.47Zm0,0" transform="translate(-64.67 -29)"/><path class="cls-1" d="M259.64,238.33l1.93-3.33,13.81,3.28-1.93,3.34Zm0,0" transform="translate(-64.67 -29)"/><path class="cls-1" d="M261.57,235l2.24-2.59,13.82,3.28-2.25,2.59Zm0,0" transform="translate(-64.67 -29)"/><path class="cls-1" d="M263.81,232.41l2.41-1.67L280,234l-2.41,1.67Zm0,0" transform="translate(-64.67 -29)"/><path class="cls-1" d="M266.22,230.74l2.41-.63,13.82,3.28L280,234Zm0,0" transform="translate(-64.67 -29)"/><path class="cls-1" d="M268.63,230.11l2.25.45,3.16.75,10.66,2.53-2.25-.45Zm0,0" transform="translate(-64.67 -29)"/><path class="cls-1" d="M289.35,244.79l-.32,4.08L288.1,253l-1.48,3.86L286,258l-1,1.76-.25.44-2.25,2.59L280,264.43l-2.41.63-2.25-.45-1.93-1.5L272,260.67l-.93-3.22-.32-3.78.32-4.09.93-4.11,1.47-3.85,1.93-3.34,2.25-2.59L280,234l2.41-.63,2.25.45,1.92,1.5,1.48,2.44L289,241Zm-1.06,4.11.29-3.75-.29-3.46-.86-3-1.35-2.24-1.77-1.37-2.06-.41h0l-2.2.58-2.21,1.53-2.06,2.37L274,242.25l-1.35,3.53-.86,3.77-.29,3.75.29,3.47.86,3L274,262l1.61,1.25h0l.15.11,2.06.41,2.21-.58,2.21-1.52,2.06-2.38,1.77-3.06,1.35-3.53Zm0,0" transform="translate(-64.67 -29)"/><path class="cls-1" d="M346.44,272.34l-50.53,24.1-66.49-15.81-1.61-.38,2.81-1.34,36.28,8.63,44.92-21.42L285,259.73l1-1.76Zm0,0" transform="translate(-64.67 -29)"/><path class="cls-1" d="M288.58,245.15l-.29,3.75-2.23-.53.29-3.74Zm0,0" transform="translate(-64.67 -29)"/><path class="cls-1" d="M288.29,248.9l-.86,3.77-2.22-.53.85-3.77Zm0,0" transform="translate(-64.67 -29)"/><path class="cls-1" d="M287.43,252.67l-1.35,3.53-2.23-.53,1.36-3.53Zm0,0" transform="translate(-64.67 -29)"/><path class="cls-1" d="M286.08,256.2l-1.77,3.06-2.23-.53,1.77-3.06Zm0,0" transform="translate(-64.67 -29)"/><path class="cls-1" d="M284.31,259.26l-2.06,2.38-2.23-.53,2.06-2.38Zm0,0" transform="translate(-64.67 -29)"/><path class="cls-1" d="M282.25,261.64,280,263.16l-2.23-.53,2.21-1.52Zm0,0" transform="translate(-64.67 -29)"/><path class="cls-1" d="M280,263.16l-2.21.58-2.21-.52h0l2.2-.58Zm0,0" transform="translate(-64.67 -29)"/><path class="cls-1" d="M277.83,263.74l-2.06-.41-.15-.11Zm0,0" transform="translate(-64.67 -29)"/><path class="cls-1" d="M274,262l-1.35-2.24-.86-3-.29-3.47.29-3.75.86-3.77,1.35-3.53,1.77-3.06,2.06-2.37,2.21-1.53,2.2-.58,1.61,1.25,1.36,2.24.85,3,.29,3.47-.29,3.74-.85,3.77-1.36,3.53-1.77,3.06L280,261.11l-2.21,1.52-2.2.58Zm0,0" transform="translate(-64.67 -29)"/><path class="cls-1" d="M282.25,234.71l2.06.41,1.77,1.37-2.23-.53-1.61-1.25Zm0,0" transform="translate(-64.67 -29)"/><path class="cls-1" d="M286.08,236.49l1.35,2.24-2.22-.53L283.85,236Zm0,0" transform="translate(-64.67 -29)"/><path class="cls-1" d="M287.43,238.73l.86,3-2.23-.53-.85-3Zm0,0" transform="translate(-64.67 -29)"/><path class="cls-1" d="M288.29,241.69l.29,3.46-2.23-.52-.29-3.47Zm0,0" transform="translate(-64.67 -29)"/><path class="cls-3" d="M248,344l44.92-21.42,51.69,12.28-44.92,21.42Zm0,0" transform="translate(-64.67 -29)"/><path class="cls-1" d="M241.19,358.88v-1.45l87.48,20.79v1.46Zm0,0" transform="translate(-64.67 -29)"/><path class="cls-1" d="M328.67,379.68v-1.46l50.54-24.09v1.45Zm0,0" transform="translate(-64.67 -29)"/><path class="cls-1" d="M379.21,354.13l-50.54,24.09v-1.45l50.54-24.1Zm0,0" transform="translate(-64.67 -29)"/><path class="cls-1" d="M328.67,378.22l-87.48-20.79V356l87.48,20.8Zm0,0" transform="translate(-64.67 -29)"/><path class="cls-1" d="M379.21,352.67l-50.54,24.1v-1.46l50.54-24.09Zm0,0" transform="translate(-64.67 -29)"/><path class="cls-1" d="M328.67,376.77,241.19,356v-1.45l87.48,20.79Zm0,0" transform="translate(-64.67 -29)"/><path class="cls-1" d="M379.21,351.22l-50.54,24.09v-1.45l50.54-24.1Zm0,0" transform="translate(-64.67 -29)"/><path class="cls-1" d="M328.67,375.31l-87.48-20.79v-1.46l87.48,20.8Zm0,0" transform="translate(-64.67 -29)"/><path class="cls-1" d="M328.67,373.86l-87.48-20.8v-1.45l87.48,20.8Zm0,0" transform="translate(-64.67 -29)"/><path class="cls-1" d="M379.21,349.76l-50.54,24.1v-1.45l50.54-24.1Zm0,0" transform="translate(-64.67 -29)"/><path class="cls-1" d="M328.67,372.41l-87.48-20.8v-1.45L328.67,371Zm0,0" transform="translate(-64.67 -29)"/><path class="cls-1" d="M379.21,348.31l-50.54,24.1V371l50.54-24.1Zm0,0" transform="translate(-64.67 -29)"/><path class="cls-1" d="M379.21,346.85,328.67,371V369.5l50.54-24.1Zm0,0" transform="translate(-64.67 -29)"/><path class="cls-1" d="M328.67,371l-87.48-20.79V348.7l87.48,20.8Zm0,0" transform="translate(-64.67 -29)"/><path class="cls-1" d="M328.67,369.5l-87.48-20.8v-1.45L328.67,368Zm0,0" transform="translate(-64.67 -29)"/><path class="cls-1" d="M379.21,345.4l-50.54,24.1V368L379.21,344Zm0,0" transform="translate(-64.67 -29)"/><path class="cls-1" d="M379.21,344,328.67,368v-1.45l50.54-24.1Zm0,0" transform="translate(-64.67 -29)"/><path class="cls-1" d="M328.67,368l-87.48-20.79v-1.46l87.48,20.8Zm0,0" transform="translate(-64.67 -29)"/><path class="cls-1" d="M328.67,366.59l-87.48-20.8v-1.45l87.48,20.79Zm0,0" transform="translate(-64.67 -29)"/><path class="cls-1" d="M379.21,342.49l-50.54,24.1v-1.46L379.21,341Zm0,0" transform="translate(-64.67 -29)"/><path class="cls-1" d="M328.67,365.13l-87.48-20.79,50.54-24.1L379.21,341Zm-35.77-42.6L248,344l51.69,12.28,44.92-21.42Zm0,0" transform="translate(-64.67 -29)"/><path class="cls-2" d="M230.62,278.91,263,263.46m-36.63,18.61v-2.29m0,0,34.93-16.66m-31.92,17.51-3,1.44m21.49-51.43,2.5-2.88m5.36-2.56,2.5.5m-12.51,8.65,2.15-3.71m5.18-4.74,2.68-.7m-5.36,2.56,2.68-1.86m-9,29.65-1-3.58m1-13.33,1.64-4.29m-2.68,8.86,1-4.57m-1.39,9.12.35-4.55m0,8.76-.35-4.21m3,10.51-1.64-2.72m3.79,4.38-2.15-1.66m20.93,4.27-.46.31m0,0-2.68.71m-2.5-.5-2.14-1.67m0,0-1.65-2.71m0,0-1-3.59m0,0-.35-4.21m0,0,.35-4.54m0,0,1-4.58m0,0,1.65-4.29m0,0,2.14-3.71m0,0,2.5-2.88m0,0,2.68-1.85m0,0,2.68-.7m0,0,2.5.49m0,0,2.15,1.67m0,0,.49.82M247.9,259.93,261,263.06m-2.78-37.36,13.14,3.12m-9.83,32.51-1.93-1.5m0,0-1.48-2.44m0,0-.93-3.23m0,0-.32-3.78m0,0,.32-4.08m0,0,.93-4.11m0,0,1.48-3.86m0,0,1.93-3.33m0,0,2.24-2.59m0,0,2.41-1.67m0,0,2.41-.63m0,0,2.25.45m18.47,14.23-.32,4.08m0-7.87.32,3.79m-1.25-7L289,241m-2.41-5.66,1.48,2.44m-3.4-3.94,1.92,1.5m-4.17-2,2.25.45M280,234l2.41-.63m-4.82,2.3L280,234m-4.66,4.26,2.25-2.59m-4.18,5.93,1.93-3.34m-3.4,7.19,1.47-3.85m-2.4,8,.93-4.11m-1.25,8.2.32-4.09m0,7.87-.32-3.78m1.25,7-.93-3.22m2.4,5.66L272,260.67m3.4,3.94-1.93-1.5m4.18,1.95-2.25-.45m4.66-.18-2.41.63m4.82-2.3L280,264.43m4.66-4.26-2.25,2.59M288.1,253l-1.48,3.86m2.41-8L288.1,253m.48-7.83-.29,3.75m0,0-.86,3.77m0,0-1.35,3.53m0,0-1.77,3.06m0,0-2.06,2.38m0,0L280,263.16m0,0-2.21.58m0,0-2.06-.41M274,262l-1.35-2.24m0,0-.86-3m0,0-.29-3.47m0,0,.29-3.75m0,0,.86-3.77m0,0,1.35-3.53m0,0,1.77-3.06m0,0,2.06-2.37m0,0,2.21-1.53m2.21-.58,2.06.41m0,0,1.77,1.37m0,0,1.35,2.24m0,0,.86,3m0,0,.29,3.46m-2.23-.52-.29,3.74m0-7.21.29,3.47m-1.14-6.43.85,3m-2.21-5.2,1.36,2.24m-3-3.49,1.61,1.25m-6,26.67-2.2.58m4.41-2.1-2.21,1.52m4.27-3.9L280,261.11m3.83-5.44-1.77,3.06m3.13-6.59-1.36,3.53m2.21-7.3-.85,3.77m61.23,20.2-50.53,24.1m15.91-30.32L266.9,287.54m0,0-36.28-8.63M286,258l60.47,14.37m-118.63,7.91,2.81-1.34M285,259.73l26.87,6.39M248,344l44.92-21.42m0,0,51.69,12.28m0,0-44.92,21.42m0,0L248,344m-6.79,14.93v-1.45m0,1.45,87.48,20.8m0,0v-1.46m0,1.46,50.54-24.1m0,0v-1.45m-50.54,24.09,50.54-24.09m-138,3.3,87.48,20.79m-87.48-20.79V356m87.48,22.25v-1.45m50.54-22.64v-1.46m-50.54,24.1,50.54-24.1m-138,3.3,87.48,20.8M241.19,356v-1.45m87.48,22.25v-1.46m50.54-22.64v-1.45m-50.54,24.09,50.54-24.09m-138,3.3,87.48,20.79m-87.48-20.79v-1.46m87.48,22.25v-1.45m50.54-22.64v-1.46m-138,3.3,87.48,20.8m0,0,50.54-24.1m-138,3.3v-1.45m87.48,22.25v-1.45m50.54-22.65v-1.45m-138,3.3,87.48,20.8m0,0,50.54-24.1m-138,3.3v-1.45m87.48,22.25V371m50.54-22.64v-1.46M328.67,371l50.54-24.1m-138,3.31L328.67,371m-87.48-20.79V348.7M328.67,371V369.5m50.54-22.65V345.4m-138,3.3,87.48,20.8m0,0,50.54-24.1m-138,3.3v-1.45m87.48,22.25V368m50.54-22.64V344M328.67,368,379.21,344m-138,3.3L328.67,368m-87.48-20.79v-1.46M328.67,368v-1.45M379.21,344v-1.46m-138,3.3,87.48,20.8m0,0,50.54-24.1m-138,3.3v-1.45m87.48,22.25v-1.46m50.54-22.64V341m-138,3.3,87.48,20.79m-36.94-44.89-50.54,24.1m50.54-24.1L379.21,341m-50.54,24.09L379.21,341M263.54,263.56l-.5-.1m23.58-6.62L286,258m-15.09-27.41,3.16.75m0,0,10.66,2.53m-23.13,27.49,5.11,1.21m0,0,8.7,2.07m.23-1.4L274,262m6-26.67,2.2-.58m0,0h0m13.66,61.73-66.49-15.81m0,0-1.61-.38M263,263.46l-1.7-.34m0,0-.3-.06M286,258l-1,1.76m0,0-.25.44m-8.93,3.16-.15-.11m0,0h0" transform="translate(-64.67 -29)"/></g><g id="Frame1"><path class="cls-3" d="M230.62,278.91,263,263.46l.5.1,2.68-.71.46-.31,2.37.56-34.91,16.65Zm0,0" transform="translate(-64.67 -29)"/><path d="M263,263.46l-32.42,15.45-2.81,1.34,1.61.38-3,1.44v-2.29l34.93-16.66Zm0,0" transform="translate(-64.67 -29)"/><path class="cls-1" d="M247.9,230.64l2.5-2.88,13.14,3.12-2.5,2.88Zm0,0" transform="translate(-64.67 -29)"/><path class="cls-1" d="M255.76,225.2l2.5.5,13.14,3.12-2.5-.49Zm0,0" transform="translate(-64.67 -29)"/><path class="cls-1" d="M245.75,234.35l2.15-3.71L261,233.76l-2.14,3.71Zm0,0" transform="translate(-64.67 -29)"/><path class="cls-1" d="M253.08,225.9l2.68-.7,13.14,3.13-2.68.7Zm0,0" transform="translate(-64.67 -29)"/><path class="cls-1" d="M250.4,227.76l2.68-1.86L266.22,229l-2.68,1.85Zm0,0" transform="translate(-64.67 -29)"/><path class="cls-1" d="M244.11,255.55l-1-3.58,13.14,3.12,1,3.59Zm0,0" transform="translate(-64.67 -29)"/><path class="cls-1" d="M244.11,238.64l1.64-4.29,13.15,3.12-1.65,4.29Zm0,0" transform="translate(-64.67 -29)"/><path class="cls-1" d="M243.07,243.21l1-4.57,13.14,3.12-1,4.58Zm0,0" transform="translate(-64.67 -29)"/><path class="cls-1" d="M242.72,247.76l.35-4.55,13.14,3.13-.35,4.54Zm0,0" transform="translate(-64.67 -29)"/><path class="cls-1" d="M243.07,252l-.35-4.21,13.14,3.12.35,4.21Zm0,0" transform="translate(-64.67 -29)"/><path class="cls-1" d="M245.75,258.27l-1.64-2.72,13.14,3.13,1.65,2.71Zm0,0" transform="translate(-64.67 -29)"/><path class="cls-1" d="M247.9,259.93l-2.15-1.66,13.15,3.12,2.14,1.67Zm0,0" transform="translate(-64.67 -29)"/><path class="cls-1" d="M266.68,262.54l-.46.31-2.68.71-.5-.1-1.7-.34-.3-.06-2.14-1.67-1.65-2.71-1-3.59-.35-4.21.35-4.54,1-4.58,1.65-4.29,2.14-3.71,2.5-2.88,2.68-1.85,2.68-.7,2.5.49,2.15,1.67.49.82-3.16-.75-2.25-.45-2.41.63-2.41,1.67L261.57,235l-1.93,3.33-1.48,3.86-.93,4.11-.32,4.08.32,3.78.93,3.23,1.48,2.44,1.93,1.5Zm0,0" transform="translate(-64.67 -29)"/><path class="cls-1" d="M261.57,261.33l-1.93-1.5,13.81,3.28,1.93,1.5-6.33-1.51-2.37-.56Zm0,0" transform="translate(-64.67 -29)"/><path class="cls-1" d="M259.64,259.83l-1.48-2.44L272,260.67l1.47,2.44Zm0,0" transform="translate(-64.67 -29)"/><path class="cls-1" d="M258.16,257.39l-.93-3.23,13.82,3.29.93,3.22Zm0,0" transform="translate(-64.67 -29)"/><path class="cls-1" d="M257.23,254.16l-.32-3.78,13.82,3.29.32,3.78Zm0,0" transform="translate(-64.67 -29)"/><path class="cls-1" d="M256.91,250.38l.32-4.08,13.82,3.28-.32,4.09Zm0,0" transform="translate(-64.67 -29)"/><path class="cls-1" d="M257.23,246.3l.93-4.11L272,245.47l-.93,4.11Zm0,0" transform="translate(-64.67 -29)"/><path class="cls-1" d="M258.16,242.19l1.48-3.86,13.81,3.29L272,245.47Zm0,0" transform="translate(-64.67 -29)"/><path class="cls-1" d="M259.64,238.33l1.93-3.33,13.81,3.28-1.93,3.34Zm0,0" transform="translate(-64.67 -29)"/><path class="cls-1" d="M261.57,235l2.24-2.59,13.82,3.28-2.25,2.59Zm0,0" transform="translate(-64.67 -29)"/><path class="cls-1" d="M263.81,232.41l2.41-1.67L280,234l-2.41,1.67Zm0,0" transform="translate(-64.67 -29)"/><path class="cls-1" d="M266.22,230.74l2.41-.63,13.82,3.28L280,234Zm0,0" transform="translate(-64.67 -29)"/><path class="cls-1" d="M268.63,230.11l2.25.45,3.16.75,10.66,2.53-2.25-.45Zm0,0" transform="translate(-64.67 -29)"/><path class="cls-1" d="M289.35,244.79l-.32,4.08L288.1,253l-1.48,3.86L286,258l-1.27,2.2-2.25,2.59L280,264.43l-2.41.63-2.25-.45-1.93-1.5L272,260.67l-.93-3.22-.32-3.78.32-4.09.93-4.11,1.47-3.85,1.93-3.34,2.25-2.59L280,234l2.41-.63,2.25.45,1.92,1.5,1.48,2.44L289,241Zm-1.06,4.11.29-3.75-.29-3.46-.86-3-1.35-2.24-1.77-1.37-2.06-.41h0l-2.2.58-2.21,1.53-2.06,2.37L274,242.25l-1.35,3.53-.86,3.77-.29,3.75.29,3.47.86,3L274,262l1.61,1.25h0l.15.11,2.06.41,2.21-.58,2.21-1.52,2.06-2.38,1.77-3.06,1.35-3.53Zm0,0" transform="translate(-64.67 -29)"/><path class="cls-1" d="M275.38,264.61l2.25.45,2.41-.63,2.41-1.67,2.25-2.59L286,258l27.71,6.58-50.54,24.1-33.72-8-1.61-.38,2.81-1.34,3.52.84,34.91-16.65Zm0,0" transform="translate(-64.67 -29)"/><path class="cls-1" d="M288.58,245.15l-.29,3.75-2.23-.53.29-3.74Zm0,0" transform="translate(-64.67 -29)"/><path class="cls-1" d="M288.29,248.9l-.86,3.77-2.22-.53.85-3.77Zm0,0" transform="translate(-64.67 -29)"/><path class="cls-1" d="M287.43,252.67l-1.35,3.53-2.23-.53,1.36-3.53Zm0,0" transform="translate(-64.67 -29)"/><path class="cls-1" d="M286.08,256.2l-1.77,3.06-2.23-.53,1.77-3.06Zm0,0" transform="translate(-64.67 -29)"/><path class="cls-1" d="M284.31,259.26l-2.06,2.38-2.23-.53,2.06-2.38Zm0,0" transform="translate(-64.67 -29)"/><path class="cls-1" d="M282.25,261.64,280,263.16l-2.23-.53,2.21-1.52Zm0,0" transform="translate(-64.67 -29)"/><path class="cls-1" d="M280,263.16l-2.21.58-2.21-.52h0l2.2-.58Zm0,0" transform="translate(-64.67 -29)"/><path class="cls-1" d="M277.83,263.74l-2.06-.41-.15-.11Zm0,0" transform="translate(-64.67 -29)"/><path class="cls-1" d="M274,262l-1.35-2.24-.86-3-.29-3.47.29-3.75.86-3.77,1.35-3.53,1.77-3.06,2.06-2.37,2.21-1.53,2.2-.58,1.61,1.25,1.36,2.24.85,3,.29,3.47-.29,3.74-.85,3.77-1.36,3.53-1.77,3.06L280,261.11l-2.21,1.52-2.2.58Zm0,0" transform="translate(-64.67 -29)"/><path class="cls-1" d="M282.25,234.71l2.06.41,1.77,1.37-2.23-.53-1.61-1.25Zm0,0" transform="translate(-64.67 -29)"/><path class="cls-1" d="M286.08,236.49l1.35,2.24-2.22-.53L283.85,236Zm0,0" transform="translate(-64.67 -29)"/><path class="cls-1" d="M287.43,238.73l.86,3-2.23-.53-.85-3Zm0,0" transform="translate(-64.67 -29)"/><path class="cls-1" d="M288.29,241.69l.29,3.46-2.23-.52-.29-3.47Zm0,0" transform="translate(-64.67 -29)"/><path class="cls-3" d="M248,344l44.92-21.42,51.69,12.28-44.92,21.42Zm0,0" transform="translate(-64.67 -29)"/><path class="cls-1" d="M241.19,358.88v-1.45l87.48,20.79v1.46Zm0,0" transform="translate(-64.67 -29)"/><path class="cls-1" d="M328.67,379.68v-1.46l50.54-24.09v1.45Zm0,0" transform="translate(-64.67 -29)"/><path class="cls-1" d="M379.21,354.13l-50.54,24.09v-1.45l50.54-24.1Zm0,0" transform="translate(-64.67 -29)"/><path class="cls-1" d="M328.67,378.22l-87.48-20.79V356l87.48,20.8Zm0,0" transform="translate(-64.67 -29)"/><path class="cls-1" d="M379.21,352.67l-50.54,24.1v-1.46l50.54-24.09Zm0,0" transform="translate(-64.67 -29)"/><path class="cls-1" d="M328.67,376.77,241.19,356v-1.45l87.48,20.79Zm0,0" transform="translate(-64.67 -29)"/><path class="cls-1" d="M379.21,351.22l-50.54,24.09v-1.45l50.54-24.1Zm0,0" transform="translate(-64.67 -29)"/><path class="cls-1" d="M328.67,375.31l-87.48-20.79v-1.46l87.48,20.8Zm0,0" transform="translate(-64.67 -29)"/><path class="cls-1" d="M328.67,373.86l-87.48-20.8v-1.45l87.48,20.8Zm0,0" transform="translate(-64.67 -29)"/><path class="cls-1" d="M379.21,349.76l-50.54,24.1v-1.45l50.54-24.1Zm0,0" transform="translate(-64.67 -29)"/><path class="cls-1" d="M328.67,372.41l-87.48-20.8v-1.45L328.67,371Zm0,0" transform="translate(-64.67 -29)"/><path class="cls-1" d="M379.21,348.31l-50.54,24.1V371l50.54-24.1Zm0,0" transform="translate(-64.67 -29)"/><path class="cls-1" d="M379.21,346.85,328.67,371V369.5l50.54-24.1Zm0,0" transform="translate(-64.67 -29)"/><path class="cls-1" d="M328.67,371l-87.48-20.79V348.7l87.48,20.8Zm0,0" transform="translate(-64.67 -29)"/><path class="cls-1" d="M328.67,369.5l-87.48-20.8v-1.45L328.67,368Zm0,0" transform="translate(-64.67 -29)"/><path class="cls-1" d="M379.21,345.4l-50.54,24.1V368L379.21,344Zm0,0" transform="translate(-64.67 -29)"/><path class="cls-1" d="M379.21,344,328.67,368v-1.45l50.54-24.1Zm0,0" transform="translate(-64.67 -29)"/><path class="cls-1" d="M328.67,368l-87.48-20.79v-1.46l87.48,20.8Zm0,0" transform="translate(-64.67 -29)"/><path class="cls-1" d="M328.67,366.59l-87.48-20.8v-1.45l87.48,20.79Zm0,0" transform="translate(-64.67 -29)"/><path class="cls-1" d="M379.21,342.49l-50.54,24.1v-1.46L379.21,341Zm0,0" transform="translate(-64.67 -29)"/><path class="cls-1" d="M328.67,365.13l-87.48-20.79,50.54-24.1L379.21,341Zm-35.77-42.6L248,344l51.69,12.28,44.92-21.42Zm0,0" transform="translate(-64.67 -29)"/><path class="cls-2" d="M230.62,278.91,263,263.46m-36.63,18.61v-2.29m0,0,34.93-16.66m-31.92,17.51-3,1.44m21.49-51.43,2.5-2.88m5.36-2.56,2.5.5m-12.51,8.65,2.15-3.71m5.18-4.74,2.68-.7m-5.36,2.56,2.68-1.86m-9,29.65-1-3.58m1-13.33,1.64-4.29m-2.68,8.86,1-4.57m-1.39,9.12.35-4.55m0,8.76-.35-4.21m3,10.51-1.64-2.72m3.79,4.38-2.15-1.66m20.93,4.27-.46.31m0,0-2.68.71m-2.5-.5-2.14-1.67m0,0-1.65-2.71m0,0-1-3.59m0,0-.35-4.21m0,0,.35-4.54m0,0,1-4.58m0,0,1.65-4.29m0,0,2.14-3.71m0,0,2.5-2.88m0,0,2.68-1.85m0,0,2.68-.7m0,0,2.5.49m0,0,2.15,1.67m0,0,.49.82M247.9,259.93,261,263.06m-2.78-37.36,13.14,3.12m-9.83,32.51-1.93-1.5m0,0-1.48-2.44m0,0-.93-3.23m0,0-.32-3.78m0,0,.32-4.08m0,0,.93-4.11m0,0,1.48-3.86m0,0,1.93-3.33m0,0,2.24-2.59m0,0,2.41-1.67m0,0,2.41-.63m0,0,2.25.45m18.47,14.23-.32,4.08m0-7.87.32,3.79m-1.25-7L289,241m-2.41-5.66,1.48,2.44m-3.4-3.94,1.92,1.5m-4.17-2,2.25.45M280,234l2.41-.63m-4.82,2.3L280,234m-4.66,4.26,2.25-2.59m-4.18,5.93,1.93-3.34m-3.4,7.19,1.47-3.85m-2.4,8,.93-4.11m-1.25,8.2.32-4.09m0,7.87-.32-3.78m1.25,7-.93-3.22m2.4,5.66L272,260.67m3.4,3.94-1.93-1.5m4.18,1.95-2.25-.45m4.66-.18-2.41.63m4.82-2.3L280,264.43m4.66-4.26-2.25,2.59M288.1,253l-1.48,3.86m2.41-8L288.1,253m.48-7.83-.29,3.75m0,0-.86,3.77m0,0-1.35,3.53m0,0-1.77,3.06m0,0-2.06,2.38m0,0L280,263.16m0,0-2.21.58m0,0-2.06-.41M274,262l-1.35-2.24m0,0-.86-3m0,0-.29-3.47m0,0,.29-3.75m0,0,.86-3.77m0,0,1.35-3.53m0,0,1.77-3.06m0,0,2.06-2.37m0,0,2.21-1.53m2.21-.58,2.06.41m0,0,1.77,1.37m0,0,1.35,2.24m0,0,.86,3m0,0,.29,3.46m-2.23-.52-.29,3.74m0-7.21.29,3.47m-1.14-6.43.85,3m-2.21-5.2,1.36,2.24m-3-3.49,1.61,1.25m-6,26.67-2.2.58m4.41-2.1-2.21,1.52m4.27-3.9L280,261.11m3.83-5.44-1.77,3.06m3.13-6.59-1.36,3.53m2.21-7.3-.85,3.77m28.47,12.41-50.54,24.1m5.91-25.55-34.91,16.65m0,0-3.52-.84M286,258l27.71,6.58m-85.87,15.7,2.81-1.34M248,344l44.92-21.42m0,0,51.69,12.28m0,0-44.92,21.42m0,0L248,344m-6.79,14.93v-1.45m0,1.45,87.48,20.8m0,0v-1.46m0,1.46,50.54-24.1m0,0v-1.45m-50.54,24.09,50.54-24.09m-138,3.3,87.48,20.79m-87.48-20.79V356m87.48,22.25v-1.45m50.54-22.64v-1.46m-50.54,24.1,50.54-24.1m-138,3.3,87.48,20.8M241.19,356v-1.45m87.48,22.25v-1.46m50.54-22.64v-1.45m-50.54,24.09,50.54-24.09m-138,3.3,87.48,20.79m-87.48-20.79v-1.46m87.48,22.25v-1.45m50.54-22.64v-1.46m-138,3.3,87.48,20.8m0,0,50.54-24.1m-138,3.3v-1.45m87.48,22.25v-1.45m50.54-22.65v-1.45m-138,3.3,87.48,20.8m0,0,50.54-24.1m-138,3.3v-1.45m87.48,22.25V371m50.54-22.64v-1.46M328.67,371l50.54-24.1m-138,3.31L328.67,371m-87.48-20.79V348.7M328.67,371V369.5m50.54-22.65V345.4m-138,3.3,87.48,20.8m0,0,50.54-24.1m-138,3.3v-1.45m87.48,22.25V368m50.54-22.64V344M328.67,368,379.21,344m-138,3.3L328.67,368m-87.48-20.79v-1.46M328.67,368v-1.45M379.21,344v-1.46m-138,3.3,87.48,20.8m0,0,50.54-24.1m-138,3.3v-1.45m87.48,22.25v-1.46m50.54-22.64V341m-138,3.3,87.48,20.79m-36.94-44.89-50.54,24.1m50.54-24.1L379.21,341m-50.54,24.09L379.21,341M263.54,263.56l-.5-.1m23.58-6.62L286,258m0,0-1.27,2.2m-13.82-29.61,3.16.75m0,0,10.66,2.53m-23.13,27.49,5.11,1.21m8.93.67L274,262m6-26.67,2.2-.58m0,0h0m-19.11,53.94-33.72-8m0,0-1.61-.38M263,263.46l-1.7-.34m0,0-.3-.06m5.64-.52,2.37.56m0,0,6.33,1.51m.39-1.28-.15-.11m0,0h0" transform="translate(-64.67 -29)"/></g></g><g id="top"><path class="cls-1" d="M241,154.46l-12.36-13.87-9.47-16.49-6-18-2-18.27,2-17.31,6-15.17,9.47-12,12.36-8,14.38-3.45,15.44,1.32,15.44,6,14.38,10.28L313,63.42l9.47,16.49,6,18,2,18.27-2,17.31-6,15.17-9.47,12-12.36,8-14.38,3.44-15.44-1.32-15.44-6Zm0,0" transform="translate(-64.67 -29)"/><path class="cls-1" d="M246.62,32.7,261,29.25l-5.62,2.68L241,35.38Zm0,0" transform="translate(-64.67 -29)"/><path class="cls-1" d="M261,29.25l15.44,1.33-5.62,2.67-15.44-1.32Zm0,0" transform="translate(-64.67 -29)"/><path class="cls-1" d="M276.45,30.58l15.43,6-5.61,2.68-15.44-6Zm0,0" transform="translate(-64.67 -29)"/><path class="cls-1" d="M291.88,36.59l14.39,10.29-5.62,2.67L286.27,39.27Zm0,0" transform="translate(-64.67 -29)"/><path class="cls-1" d="M306.27,46.88l12.35,13.86L313,63.42,300.65,49.55Zm0,0" transform="translate(-64.67 -29)"/><path class="cls-1" d="M318.62,60.74l9.48,16.49-5.62,2.68L313,63.42Zm0,0" transform="translate(-64.67 -29)"/><path class="cls-1" d="M328.1,77.23l6,18-5.62,2.68-6-18Zm0,0" transform="translate(-64.67 -29)"/><path class="cls-1" d="M334.06,95.23l2,18.28-5.61,2.67-2-18.27Zm0,0" transform="translate(-64.67 -29)"/><path class="cls-1" d="M336.09,113.51l-2,17.31-5.62,2.67,2-17.31Zm0,0" transform="translate(-64.67 -29)"/><path class="cls-1" d="M334.06,130.82l-6,15.16-5.62,2.68,6-15.17Zm0,0" transform="translate(-64.67 -29)"/><path class="cls-1" d="M328.1,146l-9.48,12L313,160.65l9.47-12Zm0,0" transform="translate(-64.67 -29)"/><path class="cls-1" d="M318.62,158l-12.35,8-5.62,2.68,12.36-8Zm0,0" transform="translate(-64.67 -29)"/><path class="cls-2" d="M241,154.46l-12.36-13.87m26.74,24.16L241,154.46M246.62,32.7,261,29.25m0,0,15.44,1.33m0,0,15.43,6m0,0,14.39,10.29m0,0,12.35,13.86m0,0,9.48,16.49m0,0,6,18m0,0,2,18.28m0,0-2,17.31m0,0-6,15.16m0,0-9.48,12m0,0-12.35,8m-35.44,4.8-15.44-6m30.88,7.33-15.44-1.32m29.82-2.12-14.38,3.44M313,160.65l-12.36,8m21.83-20-9.47,12m15.43-27.16-6,15.17m8-32.48-2,17.31m0-35.58,2,18.27m-8-36.27,6,18M313,63.42l9.47,16.49M300.65,49.55,313,63.42M286.27,39.27l14.38,10.28m-29.82-16.3,15.44,6m-30.88-7.34,15.44,1.32M241,35.38l14.38-3.45M228.65,43.36l12.36-8m-21.83,20,9.47-12M213.22,70.52l6-15.17m-8,32.48,2-17.31m0,35.58-2-18.27m8,36.27-6-18m15.43,34.49-9.47-16.49M306.27,166l-5.62,2.68m-54-135.94L241,35.38m32.63,159.26V171" transform="translate(-64.67 -29)"/></g></svg>