<svg id="Laag_1" data-name="Laag 1" xmlns="http://www.w3.org/2000/svg" viewBox="0 0 493.63 813.48"><defs><style>.cls-1{fill:#dbdcdb;}.cls-2{fill:#b8b7b7;}.cls-3{fill:#fff;}.cls-4,.cls-5{fill:none;stroke:#000;stroke-miterlimit:10;}.cls-4{stroke-width:0.5px;}.cls-6{fill:#60708c;}.cls-7{fill:#85889b;}.cls-8{fill:#8c8488;}.cls-9{fill:#c3ddb0;}.cls-10{fill:#f4dbcb;}.cls-11{fill:#e07056;}.cls-12{fill:#8394cb;}.cls-13{fill:#8d8d8d;}.cls-14{fill:#a9a9aa;}.cls-15{fill:#c5c4c5;}.cls-16{fill:#d8d8d8;}.cls-17{fill:#e4e4e3;}.cls-18{fill:#ebebeb;}.cls-19{fill:#eaeaea;}.cls-20{fill:#e2e2e1;}.cls-21{fill:#d3d3d3;}.cls-22{fill:#bebebe;}.cls-23{fill:#a4a4a3;}.cls-24{fill:#848585;}</style></defs><title>toren1</title><path class="cls-1" d="M345.67,589.45l203.88-97.22V730L345.67,827.19Zm0,0" transform="translate(-56.42 -14.2)"/><path class="cls-2" d="M549.55,492.23,345.67,589.45,56.92,520.81,260.8,423.6Zm0,0" transform="translate(-56.42 -14.2)"/><path class="cls-3" d="M345.67,589.45V827.19L56.92,758.55V520.81Zm0,0" transform="translate(-56.42 -14.2)"/><path class="cls-4" d="M345.67,589.45l203.88-97.22M345.67,589.45V827.19" transform="translate(-56.42 -14.2)"/><path class="cls-5" d="M345.67,827.19,549.55,730m0-237.75V730" transform="translate(-56.42 -14.2)"/><line class="cls-4" x1="0.5" y1="506.61" x2="289.25" y2="575.25"/><path class="cls-5" d="M56.92,520.81V758.55m0,0,288.75,68.64M260.8,423.6,56.92,520.81m492.63-28.58L260.8,423.6" transform="translate(-56.42 -14.2)"/><path class="cls-2" d="M149.16,354h1.4l.24,0,.15-.08,0-.11v-.12l.19,0,.24-.08.13-.06.09-.14v-.21l0-.17-.12-.2.09-.51V352h0l.13-.21.11-.26.07-.21V351l.05-.25-.08-.15-.06-.58,0-.69v-1.6l-.05-.63,0-.54,2.86-1.36,0,.1v.23l-.1.17-.08.82v.61l-.07.7v.71l.43,1.35-.22.4-.17.44,0,.33,0,.33.09.45-.11.72-.08.13-.1.38,0,.25.08.17.17.08.81.09.73,0,.41.08.45.14.59,0h.8l.84-.09.49-.08.09-.06v-.15l-.11-.14v-.16l-.07-.11-.07-.11-.19-.18-.4-.18-.46-.17-.33-.34-.31-.32-.13-.07-.12-.21h.07l.05-.4-.08-.19.21-.77.17-1.55.15-1.94V346l.38-.94.19-.64-.15-.31-.31-.45-.09-.07,94.25-44.94,165,39.22-116.5,55.55-165-39.22,13.16-6.28v1.78l0,.52.06.14-.09.19-.1.25,0,.22,0,.16.06.2.09.17.21.43-.34.59-.35.39-.14.23-.15.39v.32l.13.08.21,0,.48,0Zm0,0" transform="translate(-56.42 -14.2)"/><path class="cls-6" d="M150.56,354H149l-.48,0-.21,0-.13-.08v-.07l.22,0,.19-.1.16-.12.15-.16.13-.15.15-.09.13,0h.14l.14,0,.12.06.11.11.21.22.12.1.21.08.23.08.19,0h.14l.11-.05,0,.11-.15.08Zm0,0" transform="translate(-56.42 -14.2)"/><path class="cls-7" d="M148.76,352.53l.34-.59.18-.25.21-.16.24,0H150l.22,0,.25.09.43.12.34.17.29.1v.27l-.09.51-.06.11-.1.07-.17,0-.12,0,0,.06v.13l-.1.17-.17.13-.23,0H150l-.21-.22-.11-.11-.12-.06-.14,0h-.14l-.13,0-.15.09-.13.15-.15.16-.33,0-.1,0-.05-.12.05-.26.14-.23Zm0,0" transform="translate(-56.42 -14.2)"/><path class="cls-8" d="M151.28,351.87l-.34-.17-.43-.12-.25-.09-.22,0h-.31l-.24,0-.21.16-.18.25-.21-.43-.09-.17-.06-.2,0-.16,0-.22.1-.25.09-.19,0,.46.42,0,.24,0h.16l.15-.07.5-.24L151.6,352h0Zm0,0" transform="translate(-56.42 -14.2)"/><path class="cls-8" d="M149.81,350.78h-.16l-.24,0-.42,0,0-.46.67.37.66-.3h.14l.07,0,.59.41-.45-.4.36,0,.17,0,.8.28-.05.25v.35l-.07.21-.11.26-.13.21-1.14-1.51-.5.24Zm0,0" transform="translate(-56.42 -14.2)"/><path class="cls-3" d="M148.35,353.75l-.22,0v-.25l.15-.39-.05.26.05.12.1,0,.33,0-.16.12Zm0,0" transform="translate(-56.42 -14.2)"/><path class="cls-9" d="M154.11,353l.1-.38.08-.13v.21l0,.1.12.07.19.05.22,0h.4l.56,0,.18.07.14.12.11.11,0,.15,0,.14,0,0-.32-.06-.62,0-.85-.07-.22,0-.12,0-.12-.12Zm0,0" transform="translate(-56.42 -14.2)"/><path class="cls-6" d="M154.54,353.46l.85.07.62,0,.32.06.25.07.25.06.3,0h.3l.35,0,.3-.09.31-.14.07-.08.07-.07.17-.23.15-.12.18,0,.18.06.15.1.07.11v.16l.11.14v.15l-.09.06-.49.08-.84.09h-.8l-.59,0-.45-.14-.41-.08-.73,0-.81-.09-.17-.08-.08-.17.12.12.12,0Zm0,0" transform="translate(-56.42 -14.2)"/><path class="cls-3" d="M156.33,353.63l0,0,0-.14,0-.15-.11-.11-.14-.12.37.13.28.1.5.09.5.06.35,0,.24,0,.22,0-.07.08-.31.14-.3.09-.35,0h-.3l-.3,0-.25-.06Zm0,0" transform="translate(-56.42 -14.2)"/><path class="cls-7" d="M156,353.08l-.18-.07-.56,0h-.4l-.22,0-.19-.05-.12-.07,0-.1v-.21l.11-.72.29.09.5.05.54-.09,1.05-.3.38-.06.19.06.12.21.13.07.31.32.33.34.46.17.4.18.19.18.07.11-.15-.1L159,353l-.18,0-.15.12-.17.23-.07.07-.22,0-.24,0-.35,0-.5-.06-.5-.09-.28-.1Zm0,0" transform="translate(-56.42 -14.2)"/><path class="cls-10" d="M156.64,331.52l-.3-.14.23-.1.1-.11-1.12,0,.39-.26.2-.22.09,0,.06,0,.08-.06.08-.07.19-.07.2-.06h.23l.25,0,.14,0,.22-.2.1,0h.14l.1,0,.22.12.17.12.08.07.08.12.11.17,0,.15v.17l-.36.45-.3.24-.19.07h-.26l-.34-.05-.38-.12Zm0,0" transform="translate(-56.42 -14.2)"/><path class="cls-11" d="M158.74,331.07v-.17l0-.15-.11-.17-.08-.12-.08-.07-.17-.12-.22-.12-.1,0h-.14l-.1,0,0,0,0-.05h.14l.13,0,.08,0,.16.08.1.07.09.06.08.08.08.12.11.19.06.13,0,.08Zm0,0" transform="translate(-56.42 -14.2)"/><path class="cls-10" d="M155.42,331.27l.13-.08,1.12,0-.1.11-.23.1-.09,0-.19.11-.16.17-.14.13-.14.07-.16.05-.16,0-.13,0-.11-.08,0-.13,0-.14.09-.08.11-.11Zm0,0" transform="translate(-56.42 -14.2)"/><path class="cls-8" d="M149.25,342.67l-.24-.29,1.4-1.94.29,2.84.29,1.05.32.3.19.22.25.39-.26-.13-.24-.11-.46-.14-.35-.08-.51-.1-.58,0-.57.06.1-.42.22-.18.25-.19.33-.24.34-.19.22-.12.08-.09,0-.09-.07-.05h-.35l-.23-.1-.24-.15Zm0,0" transform="translate(-56.42 -14.2)"/><path class="cls-8" d="M151.52,346.4l-.33-.39-.29-.31-.3-.45-.16-.47.35.08.46.14.24.11.26.13,0,.75-.05.34Zm0,0" transform="translate(-56.42 -14.2)"/><path class="cls-8" d="M151.74,341.8l.2.12-.07.43-.47.47-.42.29-.28.17-.29-2.84.31.43.33.39.4.32Zm0,0" transform="translate(-56.42 -14.2)"/><path class="cls-10" d="M151.32,331.42l-.09-.08.78-.18.1.06.25.12.17.1.22.15.1.12.05.11,0,.1-.08.08-.16.07h-.18l-.19-.06-.15-.08-.27-.19-.12-.07-.16-.08-.15,0Zm0,0" transform="translate(-56.42 -14.2)"/><path class="cls-12" d="M149,332.17l-.28-.2.31-.08Zm0,0" transform="translate(-56.42 -14.2)"/><path class="cls-12" d="M149,331.89l-.31.08.11-.55.16.12.15.15.19.15Zm0,0" transform="translate(-56.42 -14.2)"/><path class="cls-3" d="M151,353.65v.12l-.11.05h-.14l-.19,0-.23-.08-.21-.08-.12-.1h.49l.23,0,.17-.13.07.15Zm0,0" transform="translate(-56.42 -14.2)"/><path class="cls-9" d="M151,353.65l0-.15-.07-.15.1-.17v-.13l0-.06.12,0,.17,0,.1-.07.06-.11.12.2,0,.17v.21l-.09.14-.13.06-.24.08Zm0,0" transform="translate(-56.42 -14.2)"/><path class="cls-3" d="M300.69,536l-165-39.22V354.16l165,39.22Zm0,0" transform="translate(-56.42 -14.2)"/><path class="cls-1" d="M300.69,393.38l116.5-55.55V480.48L300.69,536Zm0,0" transform="translate(-56.42 -14.2)"/><path class="cls-8" d="M157.19,350.24l.27-.11-.59.46-.28,0,.23-.22.2-.08Zm0,0" transform="translate(-56.42 -14.2)"/><path class="cls-8" d="M156.65,350.92l-.27-.05-.22,0-.15,0h-.15l-.13,0,0-.09.08-.06.12,0,.13,0,.16.05h.17l.23-.06.29-.09.59-.46-.25.83-.12,0h-.44Zm0,0" transform="translate(-56.42 -14.2)"/><path class="cls-3" d="M212,283.29l-20.63-4.9V211.82l20.63,4.9Zm0,0" transform="translate(-56.42 -14.2)"/><path class="cls-1" d="M212,283.29V216.72l67-31.94v66.57Zm0,0" transform="translate(-56.42 -14.2)"/><path class="cls-2" d="M212,216.72l-20.63-4.9,67-31.94,20.62,4.9Zm0,0" transform="translate(-56.42 -14.2)"/><path class="cls-5" d="M149.1,351.94l-.34.59m0,0-.35.39m0,0-.14.23" transform="translate(-56.42 -14.2)"/><path class="cls-4" d="M148.7,353.53l.15-.16m0,0,.13-.15m0,0,.15-.09m0,0,.13,0m0,0h.14m0,0,.14,0m0,0,.12.06m0,0,.11.11m0,0,.21.22" transform="translate(-56.42 -14.2)"/><line class="cls-5" x1="95.14" y1="338.03" x2="95.15" y2="337.77"/><line class="cls-4" x1="91.71" y1="339.58" x2="91.93" y2="339.55"/><line class="cls-5" x1="97.79" y1="338.44" x2="97.69" y2="338.82"/><path class="cls-4" d="M154.54,353.46l.85.07m0,0,.62,0m0,0,.32.06m0,0,0,0m-.19-.43.11.11m-.25-.23.14.12m-.32-.19.18.07m-1.14-.11h.4m-.62,0,.22,0m-.41-.08.19.05m-.31-.12.12.07m-.16-.17,0,.1m0-.31v.21m-.21.55.12.12m0,0,.12,0m0,0,.22,0" transform="translate(-56.42 -14.2)"/><path class="cls-5" d="M159.43,353.23l-.07-.11m.07.27v-.16m.11.3-.11-.14m.11.29v-.15m-.09.21.09-.06m-.58.14.49-.08m-1.33.17.84-.09m-1.64.09h.8m-1.39,0,.59,0m-1-.18.45.14m-.86-.22.41.08m-1.14-.12.73,0m-1.54-.13.81.09m-1-.17.17.08m-.25-.25.08.17" transform="translate(-56.42 -14.2)"/><path class="cls-4" d="M159.21,353l.15.1M159,353l.18.06m-.36,0,.18,0m-.33.16.15-.12m-.32.35.17-.23m-.24.3.07-.07m-.14.15.07-.08" transform="translate(-56.42 -14.2)"/><path class="cls-5" d="M149.44,326.45l-.14.81m0,0,0,.72m0,0-.08,1.69m-.26,2.5-.28-.2m.28.2-.1.95" transform="translate(-56.42 -14.2)"/><line class="cls-5" x1="92.28" y1="317.77" x2="92.39" y2="317.22"/><path class="cls-4" d="M149.43,332l.2.07m0,0,.31.05m2.91-.39-.1-.12m-.64-.37-.1-.06m-1.79.93.31,0m0,0,.33-.1m.86-.28.12.07m.27.19.15.08m0,0,.19.06m0,0h.18m.24-.15,0-.1m-1-.72-.07-.06m.7.4-.17-.1" transform="translate(-56.42 -14.2)"/><path class="cls-5" d="M145.68,326.28v.52m0,0,.15.54m.89,1.42.39.52m.93,1.05.22.27m.37.6.17.22" transform="translate(-56.42 -14.2)"/><path class="cls-4" d="M148.81,331.42l.16.12m2.59,0,.16.08" transform="translate(-56.42 -14.2)"/><line class="cls-4" x1="92.7" y1="317.49" x2="92.89" y2="317.64"/><path class="cls-5" d="M145.84,327.34l.4.62m0,0,.49.8m.39.52.41.45m.74.87.18.26m0,0,.19.34" transform="translate(-56.42 -14.2)"/><path class="cls-4" d="M152.63,332.07l.16-.07m0,0,.08-.08" transform="translate(-56.42 -14.2)"/><line class="cls-5" x1="91.11" y1="315.53" x2="91.63" y2="316.13"/><path class="cls-4" d="M151,353.65l0-.15m0,0-.07-.15m0,0-.17.13m-.72.06.12.1m0,0,.21.08m0,0,.23.08m0,0,.19,0m0,0h.14m0,0,.11-.05" transform="translate(-56.42 -14.2)"/><line class="cls-5" x1="91.7" y1="339.34" x2="91.71" y2="339.58"/><path class="cls-4" d="M148.35,353.75l.19-.1m0,0,.16-.12m0,0-.33,0m0,0-.1,0m0,0-.05-.12m0,0,.05-.26" transform="translate(-56.42 -14.2)"/><path class="cls-5" d="M151.54,353.47l-.13.06m.18-.58,0,.17m0,.21-.09.14m-.13.06-.24.08m0,0-.19,0m.65-.53v.21m-.16-.58.12.2m-3.47.59.15-.39" transform="translate(-56.42 -14.2)"/><path class="cls-4" d="M150.7,353.48l-.23,0m0,0h-.19m0,0H150m1.49-.79-.06.11m0,0-.1.07m0,0-.17,0m0,0-.12,0m0,0,0,.06m0,0v.13m0,0-.1.17" transform="translate(-56.42 -14.2)"/><line class="cls-5" x1="95.05" y1="338.55" x2="95.14" y2="338.03"/><path class="cls-4" d="M156.33,353.63l.25.07m0,0,.25.06m0,0,.3,0m0,0h.3m0,0,.35,0m0,0,.3-.09m0,0,.31-.14m-2.1,0,0,.14m-.06-.29,0,.15m1.36,0-.5-.06m.85.08-.35,0m.59,0-.24,0m.46-.06-.22,0m-1.09-.06-.5-.09m0,0-.28-.1m0,0-.37-.13" transform="translate(-56.42 -14.2)"/><line class="cls-5" x1="102.68" y1="338.63" x2="102.28" y2="338.45"/><line class="cls-4" x1="99.4" y1="338.81" x2="98.84" y2="338.77"/><path class="cls-5" d="M154.08,353.27l0-.25m.1-.38.08-.13m0,0,.11-.72" transform="translate(-56.42 -14.2)"/><path class="cls-4" d="M154.69,351.88l.5.05m0,0,.54-.09m0,0,1.05-.3m0,0,.38-.06m0,0,.19.06m-2.95.25.29.09" transform="translate(-56.42 -14.2)"/><path class="cls-4" d="M151.83,331l-.25-.19m-2.28-1.07.68.62" transform="translate(-56.42 -14.2)"/><path class="cls-5" d="M158.38,331.52l.36-.45m-.66.69.3-.24m.36-.45.06-.12" transform="translate(-56.42 -14.2)"/><line class="cls-4" x1="99.92" y1="317.18" x2="100.15" y2="317.08"/><line class="cls-5" x1="155.59" y1="269.09" x2="134.96" y2="264.19"/><path class="cls-4" d="M212,283.29V216.72m0,0-20.63-4.9" transform="translate(-56.42 -14.2)"/><path class="cls-5" d="M191.38,278.39V211.82M279,251.35l-67,31.94m67-31.94V184.78" transform="translate(-56.42 -14.2)"/><line class="cls-4" x1="222.57" y1="170.58" x2="155.59" y2="202.52"/><path class="cls-5" d="M258.37,179.88l20.62,4.9m-87.61,27,67-31.94M135.69,496.81l165,39.22m-48.5-237.42-94.25,44.94m-3.36,1.6-2.86,1.36m-2.87,1.37-13.16,6.28m0,0V496.81" transform="translate(-56.42 -14.2)"/><path class="cls-4" d="M300.69,393.38l116.5-55.55m-116.5,55.55V536" transform="translate(-56.42 -14.2)"/><path class="cls-5" d="M300.69,536l116.5-55.55m0-142.65V480.48m0-142.65-165-39.22" transform="translate(-56.42 -14.2)"/><line class="cls-4" x1="79.27" y1="339.96" x2="244.27" y2="379.18"/><path class="cls-4" d="M149.12,331.69l-.15-.15m2.87.19.27.19" transform="translate(-56.42 -14.2)"/><path class="cls-5" d="M152.23,341.61l-.14.44m0,0-.19.84" transform="translate(-56.42 -14.2)"/><path class="cls-5" d="M157.44,329.44l-.13-.29m74.2,20.59,3.35-77.35m3.58-1.7,33.43,59.8m-41.78-55.82-27.9,53.68" transform="translate(-56.42 -14.2)"/><path class="cls-3" d="M223.48,144.59l-12.81-14.38-9.83-17.11-6.18-18.67-2.11-19,2.11-18,6.18-15.73,9.83-12.44,12.81-8.29,14.93-3.57,16,1.37,16,6.24,14.92,10.67,12.82,14.38L308,67.25l6.18,18.67,2.11,19-2.11,18L308,138.58,298.18,151l-12.82,8.29-14.92,3.58-16-1.38-16-6.24Zm0,0" transform="translate(-56.42 -14.2)"/><path class="cls-13" d="M229.31,18.28l14.92-3.58-5.82,2.78-14.93,3.57Zm0,0" transform="translate(-56.42 -14.2)"/><path class="cls-14" d="M244.23,14.7l16,1.38-5.83,2.77-16-1.37Zm0,0" transform="translate(-56.42 -14.2)"/><path class="cls-15" d="M260.25,16.08l16,6.23-5.82,2.78-16-6.24Zm0,0" transform="translate(-56.42 -14.2)"/><path class="cls-16" d="M276.26,22.31,291.19,33l-5.83,2.77L270.44,25.09Zm0,0" transform="translate(-56.42 -14.2)"/><path class="cls-17" d="M291.19,33,304,47.37l-5.82,2.77L285.36,35.76Zm0,0" transform="translate(-56.42 -14.2)"/><path class="cls-18" d="M304,47.37l9.83,17.1L308,67.25l-9.83-17.11Zm0,0" transform="translate(-56.42 -14.2)"/><path class="cls-19" d="M313.83,64.47,320,83.15l-5.82,2.77L308,67.25Zm0,0" transform="translate(-56.42 -14.2)"/><path class="cls-20" d="M320,83.15l2.11,19-5.82,2.77-2.11-19Zm0,0" transform="translate(-56.42 -14.2)"/><path class="cls-21" d="M322.12,102.11l-2.11,18-5.82,2.77,2.11-18Zm0,0" transform="translate(-56.42 -14.2)"/><path class="cls-22" d="M320,120.07l-6.18,15.73L308,138.58l6.18-15.74Zm0,0" transform="translate(-56.42 -14.2)"/><path class="cls-23" d="M313.83,135.8,304,148.23,298.18,151,308,138.58Zm0,0" transform="translate(-56.42 -14.2)"/><path class="cls-24" d="M304,148.23l-12.81,8.29-5.83,2.78L298.18,151Zm0,0" transform="translate(-56.42 -14.2)"/><path class="cls-5" d="M223.48,144.59l-12.81-14.38m27.74,25-14.93-10.67m5.83-126.31,14.92-3.58m0,0,16,1.38m0,0,16,6.23m0,0L291.19,33m0,0L304,47.37m0,0,9.83,17.1m0,0L320,83.15m0,0,2.11,19m0,0-2.11,18m0,0-6.18,15.73m0,0L304,148.23m0,0-12.81,8.29m-36.77,5-16-6.24m32,7.62-16-1.38m30.94-2.2-14.92,3.58" transform="translate(-56.42 -14.2)"/><path class="cls-4" d="M298.18,151l-12.82,8.29M308,138.58,298.18,151m16-28.17L308,138.58m8.29-33.7-2.11,18m0-36.92,2.11,19M308,67.25l6.18,18.67m-16-35.78L308,67.25M285.36,35.76l12.82,14.38m-27.74-25,14.92,10.67M254.42,18.85l16,6.24m-32-7.61,16,1.37m-30.94,2.2,14.93-3.57" transform="translate(-56.42 -14.2)"/><path class="cls-5" d="M210.67,29.34l12.81-8.29M200.84,41.78l9.83-12.44m-16,28.17,6.18-15.73m-8.29,33.69,2.11-18m0,36.92-2.11-19m8.29,37.63-6.18-18.67m16,35.78-9.83-17.11m90.35,43.42-5.83,2.78m-56.05-141-5.83,2.77m33.86,165.22V161.75" transform="translate(-56.42 -14.2)"/></svg>